# xmcd CD database file
#
# Track frame offsets:
#	182
#	23180
#	37220
#	52847
#	78005
#	97427
#	113737
#	131675
#
# Disc length: 2045 seconds
#
# Revision: 0
# Processed by: cddbd v1.5.1PL0 Copyright (c) Steve Scherf et al.
# Submitted via: CDex 1.51
#
DISCID=6507fb08
DTITLE=Various Artist - Salsa y cadenzia
DYEAR=1989
DGENRE=Salsa
TTITLE0=Donde este mi amor
TTITLE1=Guinea
TTITLE2=Escuela pornographica
TTITLE3=Occupation
TTITLE4=Carnava
TTITLE5=Wash the pot
TTITLE6=Paralisis
TTITLE7=Maurice
EXTD=YEAR: 1989
EXTT0=
EXTT1=
EXTT2=
EXTT3=
EXTT4=
EXTT5=
EXTT6=
EXTT7=
PLAYORDER=
